<svg id="Layer_1" data-name="Layer 1" xmlns="http://www.w3.org/2000/svg" viewBox="0 0 113.39 113.39"><defs><style>.cls-1,.cls-2,.cls-3{fill:#f2f2f2;}.cls-1{opacity:0.7;}.cls-2{opacity:0.6;}.cls-3{opacity:0.8;}</style></defs><rect class="cls-1" x="28.35" y="28.35" width="56.69" height="85.04"/><path class="cls-2" d="M56.69,0H95a18.43,18.43,0,0,1,18.43,18.43v95a0,0,0,0,1,0,0H56.69a0,0,0,0,1,0,0V0A0,0,0,0,1,56.69,0Z"/><path class="cls-3" d="M2.83,59.53H41.1A18.43,18.43,0,0,1,59.53,78v38.26a0,0,0,0,1,0,0H2.83a0,0,0,0,1,0,0V59.53A0,0,0,0,1,2.83,59.53Z" transform="translate(59.53 172.91) rotate(-180)"/></svg>