<svg id="Layer_1" data-name="Layer 1" xmlns="http://www.w3.org/2000/svg" viewBox="0 0 628.04 107.61">
  <defs>
    <style>
      .cls-1 {
        fill: #fff;
      }

      .cls-2, .cls-3, .cls-4, .cls-5 {
        fill: none;
        stroke-miterlimit: 10;
      }

      .cls-2 {
        stroke: #f15f6e;
        stroke-width: 5px;
      }

      .cls-3 {
        stroke: #fff;
        stroke-width: 4px;
      }

      .cls-4 {
        stroke: #f05f7f;
        stroke-width: 6px;
      }

      .cls-5 {
        stroke: #d1d3d4;
        stroke-width: 2px;
      }
    </style>
  </defs>
  <title>transit_white</title>
  <g>
    <path class="cls-1" d="M193.61,61.52H139.46a24.78,24.78,0,0,0,3.77,11.24,21.91,21.91,0,0,0,7.91,7.45,20.72,20.72,0,0,0,10.14,2.63A21.25,21.25,0,0,0,172.55,80a16.6,16.6,0,0,0,6.85-8.35h12.35a29,29,0,0,1-6.21,10.91A31,31,0,0,1,175,90.26a33.35,33.35,0,0,1-30.34-1.79,32.92,32.92,0,0,1-12-12.48,35.27,35.27,0,0,1-4.35-17.35,35.36,35.36,0,0,1,4.38-17.35,33.17,33.17,0,0,1,12-12.54,31.8,31.8,0,0,1,16.87-4.61,31.13,31.13,0,0,1,16.55,4.51,31.94,31.94,0,0,1,11.55,12.07A33.21,33.21,0,0,1,193.8,57C193.8,57.64,193.74,59.13,193.61,61.52Zm-11.07-9.73a16.16,16.16,0,0,0-3.27-8.58,21.11,21.11,0,0,0-7.71-6.33,22.66,22.66,0,0,0-10.21-2.37,22.29,22.29,0,0,0-9.41,2,20.63,20.63,0,0,0-7.59,5.92A22.32,22.32,0,0,0,140,51.79Z" transform="translate(-8.28 -7.09)"/>
    <path class="cls-1" d="M220.05,58,198,26H211l16.65,24.58h.06L244.44,26h13L235.35,58l22.72,33.29H244.82L227.6,65.81,210.32,91.29H197.39Z" transform="translate(-8.28 -7.09)"/>
    <path class="cls-1" d="M281.69,26V40A28.72,28.72,0,0,1,291.9,28.56a26.76,26.76,0,0,1,15-4.36,30.29,30.29,0,0,1,16.39,4.61,32.58,32.58,0,0,1,11.58,12.52,36.11,36.11,0,0,1,4.23,17.31A36.24,36.24,0,0,1,334.82,76a32.73,32.73,0,0,1-11.55,12.52A30,30,0,0,1,307,93.15,27.51,27.51,0,0,1,292.16,89,26.79,26.79,0,0,1,282,77.65l.19,7.37v28.55h-11V26Zm34.92,53.83A22.47,22.47,0,0,0,325,71.22a25.36,25.36,0,0,0,3.1-12.58A25,25,0,0,0,325,46.22a22.76,22.76,0,0,0-8.36-8.64,22.32,22.32,0,0,0-11.61-3.13,21.67,21.67,0,0,0-11.56,3.23,23.38,23.38,0,0,0-8.35,8.77,24.66,24.66,0,0,0-3.07,12.19A25,25,0,0,0,285.18,71a23,23,0,0,0,8.39,8.73,21.86,21.86,0,0,0,11.49,3.17A22.54,22.54,0,0,0,316.61,79.83Z" transform="translate(-8.28 -7.09)"/>
    <path class="cls-1" d="M414.52,61.52H360.36a24.9,24.9,0,0,0,3.78,11.24,21.91,21.91,0,0,0,7.91,7.45,20.69,20.69,0,0,0,10.14,2.63A21.25,21.25,0,0,0,393.46,80a16.6,16.6,0,0,0,6.85-8.35h12.35a29.3,29.3,0,0,1-6.21,10.91,31,31,0,0,1-10.56,7.71,33.35,33.35,0,0,1-30.34-1.79,32.92,32.92,0,0,1-12-12.48,35.17,35.17,0,0,1-4.36-17.35,35.36,35.36,0,0,1,4.39-17.35,33.09,33.09,0,0,1,12-12.54,31.8,31.8,0,0,1,16.87-4.61A31.07,31.07,0,0,1,399,28.65a32,32,0,0,1,11.56,12.07A33.32,33.32,0,0,1,414.71,57C414.71,57.64,414.65,59.13,414.52,61.52Zm-11.08-9.73a16.06,16.06,0,0,0-3.26-8.58,21.19,21.19,0,0,0-7.71-6.33,22.66,22.66,0,0,0-10.21-2.37,22.29,22.29,0,0,0-9.41,2,20.63,20.63,0,0,0-7.59,5.92,22.45,22.45,0,0,0-4.39,9.34Z" transform="translate(-8.28 -7.09)"/>
    <path class="cls-1" d="M439.87,26V38.61a21.88,21.88,0,0,1,5.44-7.49A26.3,26.3,0,0,1,453.69,26a28.13,28.13,0,0,1,10.25-1.86q13,0,19.71,8.06t6.72,23.69v35.4h-11V56.08q0-11-4.73-16.32t-13.51-5.31a20.12,20.12,0,0,0-10.27,2.75,20.35,20.35,0,0,0-7.65,7.9A23.86,23.86,0,0,0,440.31,57V91.29h-11V26Z" transform="translate(-8.28 -7.09)"/>
    <path class="cls-1" d="M517.61,90.07A22.19,22.19,0,0,1,508.33,82a20,20,0,0,1-3.11-10.76l10.63.07a11.84,11.84,0,0,0,2,6.53,13.27,13.27,0,0,0,5.76,4.64,21.77,21.77,0,0,0,9,1.69q7.3,0,11.14-2.85a9.27,9.27,0,0,0,3.84-7.9,8,8,0,0,0-1.89-5.6,12,12,0,0,0-5.34-3.2,66.24,66.24,0,0,0-9.22-2.08Q520.59,61,514.44,56.69T508.3,43.28a18.46,18.46,0,0,1,2.65-9.8,18,18,0,0,1,7.91-6.84,29.57,29.57,0,0,1,12.8-2.5,32.29,32.29,0,0,1,13.12,2.5,20.53,20.53,0,0,1,8.84,7,17.23,17.23,0,0,1,3.13,10.12H545.94a9.65,9.65,0,0,0-4-7.56q-3.76-2.81-10.24-2.81-6.07,0-9.28,2.75a8.74,8.74,0,0,0-3.2,6.91,8.36,8.36,0,0,0,1.41,5.06,10.22,10.22,0,0,0,4.73,3.2,51.28,51.28,0,0,0,9.54,2.3,71,71,0,0,1,12.29,3,18.86,18.86,0,0,1,8.36,5.73q3.29,3.93,3.29,10.59A18.54,18.54,0,0,1,555.51,84a20,20,0,0,1-9.22,6.88,37.86,37.86,0,0,1-13.8,2.31A33.1,33.1,0,0,1,517.61,90.07Z" transform="translate(-8.28 -7.09)"/>
    <path class="cls-1" d="M585,88.54A33.33,33.33,0,0,1,572.79,76a34.78,34.78,0,0,1-4.45-17.38,34.88,34.88,0,0,1,4.45-17.35,33.92,33.92,0,0,1,59.08,0,34.8,34.8,0,0,1,4.45,17.38A34.78,34.78,0,0,1,631.87,76,34.28,34.28,0,0,1,585,88.54Zm29-8.9A22.34,22.34,0,0,0,622.3,71a25.3,25.3,0,0,0,3-12.36,25.16,25.16,0,0,0-3-12.29,22.56,22.56,0,0,0-8.25-8.67,23.07,23.07,0,0,0-23.34,0,22.74,22.74,0,0,0-8.32,8.67,25,25,0,0,0-3,12.29,25.1,25.1,0,0,0,3,12.36,23,23,0,0,0,31.66,8.64Z" transform="translate(-8.28 -7.09)"/>
  </g>
  <circle class="cls-2" cx="62.99" cy="38.21" r="20.74"/>
  <path class="cls-3" d="M25.23,2h80.38a0,0,0,0,1,0,0V82.38a23.23,23.23,0,0,1-23.23,23.23H2.67a.67.67,0,0,1-.67-.67V25.23A23.23,23.23,0,0,1,25.23,2Z"/>
  <line class="cls-4" x1="50.03" y1="55.26" x2="21.85" y2="85"/>
  <g>
    <line class="cls-5" x1="54.03" y1="29.96" x2="71.24" y2="29.96"/>
    <line class="cls-5" x1="54.03" y1="35.36" x2="71.24" y2="35.36"/>
    <line class="cls-5" x1="54.03" y1="40.77" x2="71.24" y2="40.77"/>
    <line class="cls-5" x1="54.03" y1="46.17" x2="71.24" y2="46.17"/>
  </g>
</svg>
