<?xml version="1.0" encoding="utf-8"?>
<!-- Generator: Adobe Illustrator 23.0.2, SVG Export Plug-In . SVG Version: 6.00 Build 0)  -->
<svg version="1.1" id="Layer_1" xmlns="http://www.w3.org/2000/svg" xmlns:xlink="http://www.w3.org/1999/xlink" x="0px" y="0px"
	 viewBox="0 0 205 73" style="enable-background:new 0 0 205 73;" xml:space="preserve">
<style type="text/css">
	.st0{fill:#00A982;}
	.st1{fill:none;stroke:#000000;stroke-width:9.75;stroke-miterlimit:10;}
</style>
<g>
	<path d="M144.2,69.5h-12.6V59.3h-0.3c-2.6,3.8-5.8,6.9-9.7,9.1c-3.8,2.2-8,3.4-12.6,3.4c-4.9,0-9.2-0.9-13.2-2.8s-7.2-4.5-9.9-7.8
		c-2.7-3.3-4.8-7.1-6.2-11.4c-1.4-4.3-2.1-8.8-2.1-13.4c0-4.5,0.7-8.8,2.2-12.9c1.4-4.2,3.5-7.8,6.2-11.1c2.7-3.2,6-5.7,9.8-7.6
		c3.8-1.8,8.1-2.7,12.7-2.7c4.8,0,9.1,1.1,12.9,3.4c3.9,2.3,7.1,5.4,9.7,9.4h0.3V4h12.6V69.5z M126.6,53.7
		c3.8-4.6,5.7-10.2,5.7-16.9c0-6.6-1.9-12.2-5.7-16.7c-3.8-4.5-9-6.8-15.5-6.8c-6.3,0-11.3,2.3-15,6.9c-3.8,4.6-5.7,10.1-5.7,16.6
		c0,6.5,1.9,12.1,5.6,16.8c3.7,4.7,8.8,7,15.1,7C117.6,60.5,122.8,58.2,126.6,53.7z"/>
	<path d="M187.2,3.9h15.7L178,34.2l26.3,35.3h-16.4l-21-29.5h-0.2v29.5H154V3.9h12.8v27.6h0.2L187.2,3.9z"/>
	<path class="st0" d="M27.7,23.4c2.6-1.8,5.8-2.9,9.3-2.9c3.4,0,6.6,1.1,9.3,2.9l6.3-7.5c-4.3-3.2-9.7-5.2-15.6-5.2
		c-5.8,0-11.2,1.9-15.6,5.2L27.7,23.4z"/>
	<rect x="32.1" y="37.8" width="9.8" height="25.6"/>
	<circle class="st1" cx="37" cy="36.8" r="30.9"/>
	<circle cx="37" cy="33.1" r="7.8"/>
</g>
</svg>
