<svg id="Layer_1" data-name="Layer 1" xmlns="http://www.w3.org/2000/svg" viewBox="0 0 284.61 49.8">
  <defs>
    <style>
      .cls-1 {
        fill: #414042;
      }

      .cls-2 {
        fill: #c83d1c;
      }
    </style>
  </defs>
  <title>oakui_black</title>
  <g>
    <path class="cls-1" d="M110.45,4a25.05,25.05,0,0,1,8,5.3,24.17,24.17,0,0,1,5.35,8A25,25,0,0,1,125.7,27a25,25,0,0,1-1.9,9.75,24.17,24.17,0,0,1-5.35,8,25.42,25.42,0,0,1-35.5,0,24.17,24.17,0,0,1-5.35-8A25,25,0,0,1,75.7,27a25,25,0,0,1,1.9-9.75A24.17,24.17,0,0,1,83,9.3,24.84,24.84,0,0,1,91,4a25.84,25.84,0,0,1,19.45,0Zm-15.9,8A15.32,15.32,0,0,0,89.4,15.5,17.09,17.09,0,0,0,86,20.75,16.13,16.13,0,0,0,86,33.2a16.4,16.4,0,0,0,3.45,5.25A16.65,16.65,0,0,0,94.5,42a15.43,15.43,0,0,0,12.4,0,16.65,16.65,0,0,0,5.1-3.55,16.4,16.4,0,0,0,3.45-5.25A16,16,0,0,0,116.7,27a16.44,16.44,0,0,0-1.2-6.25,16.35,16.35,0,0,0-8.6-8.8,15.88,15.88,0,0,0-12.35,0Z" transform="translate(-1.61 -2.1)"/>
    <path class="cls-1" d="M177.8,50.3h-9V43h-.2a21.47,21.47,0,0,1-6.9,6.5,17.48,17.48,0,0,1-9,2.4,21.63,21.63,0,0,1-9.4-2,20.23,20.23,0,0,1-7.1-5.55,25.06,25.06,0,0,1-4.4-8.15,30.8,30.8,0,0,1-1.5-9.6,27.76,27.76,0,0,1,1.55-9.25,24.83,24.83,0,0,1,4.45-7.9,20.49,20.49,0,0,1,7-5.4,20.89,20.89,0,0,1,9.1-1.95,17.89,17.89,0,0,1,9.25,2.45,20.91,20.91,0,0,1,6.95,6.75h.2V3.5h9ZM165.25,39a18.37,18.37,0,0,0,4.05-12.1A17.9,17.9,0,0,0,165.2,15a13.78,13.78,0,0,0-11.1-4.85,13.19,13.19,0,0,0-10.75,5,18.12,18.12,0,0,0-4,11.85,18.58,18.58,0,0,0,4,12,13.11,13.11,0,0,0,10.8,5Q161.2,43.9,165.25,39Z" transform="translate(-1.61 -2.1)"/>
    <path class="cls-1" d="M210.77,2.8h11.4l-18,21.92,19,25.58H211.27L196.09,28.94H196V50.3H186.7V2.8H196v20h.13Z" transform="translate(-1.61 -2.1)"/>
    <path class="cls-1" d="M237.16,3.5V29.4a30.86,30.86,0,0,0,.45,5.55,12.71,12.71,0,0,0,1.65,4.4,8.25,8.25,0,0,0,3.35,3,13.56,13.56,0,0,0,10.7,0,8.25,8.25,0,0,0,3.35-3,12.71,12.71,0,0,0,1.65-4.4,30.86,30.86,0,0,0,.45-5.55V3.5h9V30.4q0,10-4.9,15.75T248,51.9q-10,0-14.9-5.75t-4.9-15.75V3.5Z" transform="translate(-1.61 -2.1)"/>
    <path class="cls-1" d="M286.22,50.3H277V2.8h9.26Z" transform="translate(-1.61 -2.1)"/>
  </g>
  <path class="cls-1" d="M44.13,2.36H7.28a5.67,5.67,0,0,0,0,11.34H44.13a5.67,5.67,0,0,0,0-11.34Zm-36.44,9a3.46,3.46,0,1,1,3.46-3.46A3.46,3.46,0,0,1,7.69,11.39Z" transform="translate(-1.61 -2.1)"/>
  <path class="cls-2" d="M59.74,21H22.89a5.67,5.67,0,0,0,0,11.34H59.74a5.67,5.67,0,0,0,0-11.34ZM23.3,30a3.46,3.46,0,1,1,3.46-3.46A3.46,3.46,0,0,1,23.3,30Z" transform="translate(-1.61 -2.1)"/>
  <path class="cls-1" d="M44.13,39.58H7.28a5.67,5.67,0,0,0,0,11.34H44.13a5.67,5.67,0,0,0,0-11.34Zm-36.44,9a3.46,3.46,0,1,1,3.46-3.46A3.46,3.46,0,0,1,7.69,48.61Z" transform="translate(-1.61 -2.1)"/>
</svg>
