<?xml version="1.0" encoding="UTF-8" standalone="no"?>
<!-- Created with Inkscape (http://www.inkscape.org/) -->

<svg
   version="1.1"
   id="svg2"
   xml:space="preserve"
   width="1333.3333"
   height="1333.3333"
   viewBox="0 0 1333.3333 1333.3333"
   sodipodi:docname="Westernacher sign blue white.ai"
   xmlns:inkscape="http://www.inkscape.org/namespaces/inkscape"
   xmlns:sodipodi="http://sodipodi.sourceforge.net/DTD/sodipodi-0.dtd"
   xmlns="http://www.w3.org/2000/svg"
   xmlns:svg="http://www.w3.org/2000/svg"><defs
     id="defs6"><clipPath
       clipPathUnits="userSpaceOnUse"
       id="clipPath16"><path
         d="M 0,1000 H 1000 V 0 H 0 Z"
         id="path14" /></clipPath></defs><sodipodi:namedview
     id="namedview4"
     pagecolor="#ffffff"
     bordercolor="#666666"
     borderopacity="1.0"
     inkscape:pageshadow="2"
     inkscape:pageopacity="0.0"
     inkscape:pagecheckerboard="0" /><g
     id="g8"
     inkscape:groupmode="layer"
     inkscape:label="Westernacher sign blue white"
     transform="matrix(1.3333333,0,0,-1.3333333,0,1333.3333)"><g
       id="g10"><g
         id="g12"
         clip-path="url(#clipPath16)"><g
           id="g18"
           transform="translate(870.1328,234.6494)"><path
             d="m 0,0 c -68.464,0 -120.725,19.851 -156.981,58.741 -36.461,38.892 -54.287,86.898 -54.287,142.804 0,58.742 18.635,106.748 56.312,144.829 37.879,38.081 86.29,57.324 146.247,57.324 55.602,0 102.31,-17.194 138.576,-50.971 v 412.624 h -1000 V 530.702 h 54.838 l 106.343,-351.236 119.915,351.236 h 67.046 l 122.143,-351.236 104.925,351.236 h 115.659 L -353.464,8.507 h -89.327 L -554.806,350.425 -666.821,8.507 h -89.327 l -113.985,340.501 v -583.657 h 1000 V 29.064 C 90.666,9.766 47.442,0 0,0"
             style="fill:#1596d1;fill-opacity:1;fill-rule:nonzero;stroke:none"
             id="path20" /></g><g
           id="g22"
           transform="translate(874.5908,318.71)"><path
             d="M 0,0 C 42.058,0 91.986,16.149 125.409,38.774 V 82.037 H -113.434 C -99.254,27.548 -61.375,0 0,0"
             style="fill:#1596d1;fill-opacity:1;fill-rule:nonzero;stroke:none"
             id="path24" /></g><g
           id="g26"
           transform="translate(861.8291,555.5005)"><path
             d="M 0,0 C -50.64,0 -88.519,-30.383 -100.672,-80.618 H 97.024 C 87.708,-30.383 51.247,0 0,0"
             style="fill:#1596d1;fill-opacity:1;fill-rule:nonzero;stroke:none"
             id="path28" /></g></g></g></g></svg>
